<svg width="24" height="24" viewBox="0 0 24 24" fill="none" xmlns="http://www.w3.org/2000/svg">
<path d="M24 0H0.00488281V4.30531H24V0Z" fill="#AEAEAE"/>
<path d="M0 5.50537V24.0001H24V5.50537H0ZM5.71592 21.027H2.95347V17.8482H5.71592V21.027ZM5.71592 16.036H2.95347V12.8572H5.71592V16.036ZM5.71592 11.0646H2.95347V7.86619H5.71592V11.0646ZM21.0465 19.6556H9.04653C8.70367 19.6556 8.43918 19.3911 8.43918 19.0482C8.43918 18.7054 8.70367 18.4409 9.04653 18.4409H21.0416C21.3845 18.4409 21.649 18.7054 21.649 19.0482C21.649 19.3911 21.3894 19.6556 21.0465 19.6556ZM21.0465 15.0662H9.04653C8.70367 15.0662 8.43918 14.8017 8.43918 14.4588C8.43918 14.116 8.70367 13.8515 9.04653 13.8515H21.0416C21.3845 13.8515 21.649 14.116 21.649 14.4588C21.649 14.8017 21.3894 15.0662 21.0465 15.0662ZM21.0465 10.4572H9.04653C8.70367 10.4572 8.43918 10.1927 8.43918 9.84986C8.43918 9.50701 8.70367 9.24252 9.04653 9.24252H21.0416C21.3845 9.24252 21.649 9.50701 21.649 9.84986C21.649 10.1927 21.3894 10.4572 21.0465 10.4572Z" fill="#AEAEAE"/>
</svg>
