<svg width="24" height="25" viewBox="0 0 24 25" fill="none" xmlns="http://www.w3.org/2000/svg">
<path d="M20.3076 1.21387H8.30758C7.2922 1.21387 6.46143 2.04464 6.46143 3.06002V3.9831H17.5383C18.5537 3.9831 19.3845 4.81387 19.3845 5.82925V18.7523H20.3076C21.323 18.7523 22.1537 17.9216 22.1537 16.9062V3.06002C22.1537 2.04464 21.323 1.21387 20.3076 1.21387Z" fill="#005F6C"/>
<path d="M17.5385 7.67574C17.5385 6.66036 16.7077 5.82959 15.6923 5.82959H3.69235C2.67696 5.82959 1.84619 6.66036 1.84619 7.67574V21.5219C1.84619 22.5373 2.67696 23.368 3.69235 23.368H15.6923C16.7077 23.368 17.5385 22.5373 17.5385 21.5219V7.67574ZM9.23081 10.9065C9.23081 11.1834 9.04619 11.3681 8.76927 11.3681H5.07696C4.80004 11.3681 4.61542 11.1834 4.61542 10.9065V9.98344C4.61542 9.70651 4.80004 9.5219 5.07696 9.5219H8.76927C9.04619 9.5219 9.23081 9.70651 9.23081 9.98344V10.9065ZM12.9231 18.2911C12.9231 18.568 12.7385 18.7527 12.4616 18.7527H5.07696C4.80004 18.7527 4.61542 18.568 4.61542 18.2911V17.368C4.61542 17.0911 4.80004 16.9065 5.07696 16.9065H12.4616C12.7385 16.9065 12.9231 17.0911 12.9231 17.368V18.2911ZM14.7693 14.5988C14.7693 14.8757 14.5847 15.0604 14.3077 15.0604H5.07696C4.80004 15.0604 4.61542 14.8757 4.61542 14.5988V13.6757C4.61542 13.3988 4.80004 13.2142 5.07696 13.2142H14.3077C14.5847 13.2142 14.7693 13.3988 14.7693 13.6757V14.5988Z" fill="#005F6C"/>
</svg>
