<svg width="37" height="36" viewBox="0 0 37 36" fill="none" xmlns="http://www.w3.org/2000/svg">
<g clip-path="url(#clip0_169_664)">
<path d="M27.6379 0H9.6665C4.72365 0 0.666504 4.05714 0.666504 9.02857V27C0.666504 31.9429 4.72365 36 9.6665 36H27.6379C32.6094 36 36.6665 31.9429 36.6665 26.9714V9.02857C36.6665 4.05714 32.6094 0 27.6379 0ZM23.4951 18H20.0951V29.1429H15.8094V18H13.5236V13.4286H15.5236V11.4857C15.5236 9.65714 16.4379 6.77143 20.2951 6.77143H23.8094V10.5714H21.3236C20.9236 10.5714 20.3808 10.8286 20.3808 11.7143V13.4286H23.8951L23.4951 18Z" fill="#005F6C"/>
</g>
<defs>
<clipPath id="clip0_169_664">
<rect width="36" height="36" fill="white" transform="translate(0.666504)"/>
</clipPath>
</defs>
</svg>
