<svg width="24" height="24" viewBox="0 0 24 24" fill="none" xmlns="http://www.w3.org/2000/svg">
<path d="M11.4515 11.5306L15.6572 15.7363L16.5374 14.8562L12.3316 10.6504L11.4515 11.5306Z" fill="#AEAEAE"/>
<path d="M9.70341 13.2786L13.9092 17.4844L14.7893 16.6043L10.5835 12.3985L9.70341 13.2786Z" fill="#AEAEAE"/>
<path d="M11.9996 0C5.37247 0 0 5.37287 0 11.9998C0 18.6267 5.37247 24 11.9996 24C18.627 24 23.9997 18.6269 23.9997 11.9998C23.9997 5.37271 18.627 0 11.9996 0ZM13.9314 20.8823L5.20911 12.1602L4.06553 7.31084L8.06466 3.31154L12.9611 4.40833L21.6832 13.1302L13.9314 20.8823Z" fill="#AEAEAE"/>
<path d="M10.5114 6.39055C10.0682 5.94712 9.47871 5.70312 8.85193 5.70312C8.22514 5.70312 7.63587 5.94736 7.19244 6.39055C6.27765 7.30574 6.27765 8.79451 7.19244 9.70954C7.63587 10.1527 8.22514 10.3967 8.85193 10.3967C9.47871 10.3967 10.068 10.1527 10.5114 9.7093C11.426 8.79451 11.4262 7.30558 10.5114 6.39055ZM9.63119 8.82891C9.42311 9.03699 9.14632 9.15155 8.85208 9.15155C8.55785 9.15155 8.28106 9.03699 8.07298 8.82891C7.64347 8.3994 7.64347 7.70021 8.07298 7.27046C8.28106 7.06238 8.55785 6.94758 8.85208 6.94758C9.14632 6.94758 9.42311 7.0623 9.63095 7.27022C10.0605 7.70037 10.0605 8.3994 9.63119 8.82891Z" fill="#AEAEAE"/>
<path d="M14.0793 8.90112L13.1992 9.78125L17.4048 13.9868L18.2849 13.1067L14.0793 8.90112Z" fill="#AEAEAE"/>
</svg>
