<svg width="24" height="24" viewBox="0 0 24 24" fill="none" xmlns="http://www.w3.org/2000/svg">
<path d="M14.249 12.0001C14.249 11.0383 13.642 10.2159 12.791 9.89502V14.1052C13.6419 13.7843 14.249 12.962 14.249 12.0001Z" fill="#AEAEAE"/>
<path d="M2.9011 9.15186H0V14.8486H2.9011V9.15186Z" fill="#AEAEAE"/>
<path d="M9.75098 12.0001C9.75098 12.962 10.358 13.7843 11.209 14.1052V9.89502C10.358 10.2159 9.75098 11.0383 9.75098 12.0001Z" fill="#AEAEAE"/>
<path d="M12.791 3.77148V8.2511C14.5253 8.61669 15.8314 10.1585 15.8314 12.0001C15.8314 13.8416 14.5254 15.3834 12.791 15.749V20.2286H23.9998V16.4308H19.5163V7.56929H23.9998V3.77148H12.791Z" fill="#AEAEAE"/>
<path d="M0 7.56929H4.48352V16.4308H0V20.2286H11.2088V15.749C9.47446 15.3834 8.16839 13.8416 8.16839 12.0001C8.16839 10.1585 9.47441 8.61669 11.2088 8.2511V3.77148H0V7.56929Z" fill="#AEAEAE"/>
<path d="M24.0002 9.15186H21.0991V14.8486H24.0002V9.15186Z" fill="#AEAEAE"/>
</svg>
