<svg width="37" height="37" viewBox="0 0 37 37" fill="none" xmlns="http://www.w3.org/2000/svg">
<g clip-path="url(#clip0_169_668)">
<path d="M21.8491 15.7875C21.1354 14.7819 19.9649 14.1211 18.6516 14.1211C17.3384 14.1211 16.1679 14.7819 15.4542 15.7875C14.9974 16.4483 14.7119 17.2527 14.7119 18.1146C14.7119 20.2982 16.4819 22.0795 18.6516 22.0795C20.8214 22.0795 22.5914 20.2982 22.5914 18.1146C22.5914 17.2527 22.3059 16.4483 21.8491 15.7875Z" fill="#005F6C"/>
<path d="M24.3324 15.8159C24.6179 16.3905 24.7892 17.3099 24.7892 18.1144C24.7892 21.5046 22.0485 24.2915 18.6512 24.2915C15.2539 24.2915 12.5132 21.5333 12.5132 18.1144C12.5132 17.2812 12.6845 16.3905 12.97 15.8159H9.51562V25.0384C9.51562 26.2451 10.5719 27.3082 11.771 27.3082H25.5315C26.7305 27.3082 27.7868 26.2451 27.7868 25.0384V15.8159H24.3324Z" fill="#005F6C"/>
<path d="M26.7599 9.43791H23.4482V13.2591H27.2167V9.92633V9.40918L26.7599 9.43791Z" fill="#005F6C"/>
<path d="M27.6161 0.0146484H9.68743C4.71994 0.0146484 0.666016 4.09439 0.666016 9.09352V27.1651C0.666016 32.1355 4.71994 36.2152 9.68743 36.2152H27.6446C32.6121 36.2152 36.666 32.1355 36.666 27.1363V9.09352C36.6375 4.09439 32.5835 0.0146484 27.6161 0.0146484ZM29.7858 15.7878V25.039C29.7858 27.4524 27.9301 29.3199 25.532 29.3199H11.7715C9.37339 29.3199 7.51772 27.4524 7.51772 25.039V15.7878V11.1909C7.51772 8.77748 9.37339 6.90999 11.7715 6.90999H25.532C27.9301 6.90999 29.7858 8.77748 29.7858 11.1909V15.7878Z" fill="#005F6C"/>
</g>
<defs>
<clipPath id="clip0_169_668">
<rect width="36" height="36.2293" fill="white" transform="translate(0.666016)"/>
</clipPath>
</defs>
</svg>
