<svg width="24" height="24" viewBox="0 0 24 24" fill="none" xmlns="http://www.w3.org/2000/svg">
<g clip-path="url(#clip0_169_830)">
<path d="M23.9999 5.54664V18.294C23.9999 19.6295 23.1427 20.965 21.7959 21.4505L15.6733 23.7573C15.306 23.8786 14.9387 24 14.4488 24C13.8366 24 13.102 23.7573 12.4897 23.3931C12.2448 23.1502 11.8775 22.9074 11.755 22.6645H7.10192C5.26519 22.6645 3.67334 21.2077 3.67334 19.2653V18.0513C3.67334 17.5656 4.0407 17.08 4.65294 17.08C5.26519 17.08 5.63253 17.4442 5.63253 18.0513V19.2653C5.63253 20.1151 6.36722 20.7221 7.10192 20.7221H11.1427V3.23997H7.10192C6.24477 3.23997 5.63253 3.84699 5.63253 4.69682V5.91085C5.63253 6.39647 5.26519 6.88208 4.65294 6.88208C4.0407 6.88208 3.67334 6.39647 3.67334 5.91085V4.69682C3.67334 2.87576 5.14274 1.29751 7.10192 1.29751H11.755C11.9999 1.0547 12.2448 0.81189 12.4897 0.569082C13.4693 -0.0379388 14.5714 -0.159343 15.6733 0.204869L21.7959 2.51155C23.0203 2.87576 23.9999 4.21121 23.9999 5.54664Z" fill="#AEAEAE"/>
<path d="M3.42857 15.38C3.18368 15.38 2.93878 15.2587 2.81633 15.1373L0.367344 12.7092C0.244896 12.5878 0.244896 12.4664 0.122448 12.4664C0.122448 12.345 0 12.2236 0 12.1022C0 11.9808 6.2585e-08 11.8594 0.122448 11.738C0.122448 11.6166 0.244896 11.4952 0.367344 11.4952L2.81633 9.0671C3.18368 8.70289 3.79593 8.70289 4.16327 9.0671C4.53062 9.43132 4.53062 10.0384 4.16327 10.4026L3.30612 11.2524H8.32655C8.81634 11.2524 9.30613 11.6166 9.30613 12.2236C9.30613 12.8306 8.81634 12.9521 8.32655 12.9521H3.18368L4.04082 13.8018C4.40817 14.166 4.40817 14.7731 4.04082 15.1373C3.91838 15.2587 3.67347 15.38 3.42857 15.38Z" fill="#AEAEAE"/>
</g>
<defs>
<clipPath id="clip0_169_830">
<rect width="24" height="24" fill="white"/>
</clipPath>
</defs>
</svg>
