<svg width="36" height="36" viewBox="0 0 36 36" fill="none" xmlns="http://www.w3.org/2000/svg">
<path d="M27.9721 23.0042L25.7401 21.2042C24.9841 20.5922 23.9041 20.5559 23.1121 21.1322L20.9881 22.6802C20.7001 22.8962 20.3044 22.8602 20.0521 22.6082L16.5601 19.4402L13.3561 15.9122C13.1041 15.6602 13.0681 15.2642 13.2841 14.9762L14.8321 12.8522C15.4081 12.0602 15.3721 10.9802 14.7601 10.2242L12.9601 7.99221C12.1681 6.98421 10.6561 6.91221 9.75606 7.81221L7.81206 9.75621C7.38006 10.1882 7.16406 10.8002 7.16406 11.3762C7.41606 15.9482 9.50406 20.3042 12.5641 23.3642C15.6241 26.4242 19.9441 28.5122 24.5521 28.7642C25.1641 28.8002 25.7401 28.5479 26.1721 28.1159L28.1161 26.1722C29.0881 25.3082 28.9801 23.7962 27.9721 23.0042Z" fill="#005F6C"/>
</svg>
