<svg width="20" height="20" viewBox="0 0 20 20" fill="none" xmlns="http://www.w3.org/2000/svg">
<path d="M19.9693 7.24318C19.8955 7.0162 19.6994 6.85077 19.4632 6.8165L13.3128 5.92276L10.5622 0.349445C10.4566 0.135457 10.2386 0 9.99999 0C9.76135 0 9.54343 0.135457 9.43781 0.349445L6.68722 5.92276L0.536763 6.8165C0.300624 6.85077 0.104439 7.0162 0.0307136 7.24318C-0.043054 7.47013 0.0184677 7.71926 0.189366 7.88582L4.63983 12.224L3.58919 18.3497C3.54886 18.5848 3.64558 18.8225 3.83863 18.9628C4.03163 19.103 4.28754 19.1216 4.49886 19.0106L9.99999 16.1184L15.5011 19.0106C15.5929 19.0587 15.6931 19.0826 15.7928 19.0826C15.9228 19.0826 16.0522 19.0422 16.1614 18.9629C16.3544 18.8226 16.4511 18.5849 16.4108 18.3497L15.3602 12.2241L19.8106 7.88586C19.9815 7.71922 20.043 7.47009 19.9693 7.24318Z" fill="#005F6C"/>
</svg>
