<svg width="20" height="21" viewBox="0 0 20 21" fill="none" xmlns="http://www.w3.org/2000/svg">
<g clip-path="url(#clip0_280_111)">
<path d="M19.7479 19.5647L14.0096 13.8223C15.1409 12.4656 15.8213 10.7318 15.8213 8.83814C15.8213 4.51803 12.2758 1.00537 7.91475 1.00537C3.55364 1.00537 0 4.52213 0 8.84224C0 13.1624 3.54544 16.675 7.90655 16.675C9.7592 16.675 11.4643 16.0397 12.8169 14.9781L18.5757 20.7369C18.9118 21.073 19.4118 21.073 19.7479 20.7369C20.084 20.4008 20.084 19.9008 19.7479 19.5647ZM1.6805 8.84224C1.6805 5.44845 4.47587 2.68997 7.90655 2.68997C11.3372 2.68997 14.1326 5.44845 14.1326 8.84224C14.1326 12.236 11.3372 14.9945 7.90655 14.9945C4.47587 14.9945 1.6805 12.2319 1.6805 8.84224Z" fill="white"/>
</g>
<defs>
<clipPath id="clip0_280_111">
<rect width="20" height="20" fill="white" transform="translate(0 0.99707)"/>
</clipPath>
</defs>
</svg>
