<svg width="24" height="24" viewBox="0 0 24 24" fill="none" xmlns="http://www.w3.org/2000/svg">
<path d="M22.4 0H1.6C0.716344 0 0 0.716344 0 1.6V4.8C0 5.68366 0.716344 6.4 1.6 6.4H22.4C23.2837 6.4 24 5.68366 24 4.8V1.6C24 0.716344 23.2837 0 22.4 0Z" fill="#AEAEAE"/>
<path d="M9.2 8.7998H1.6C0.716344 8.7998 0 9.51615 0 10.3998V13.5998C0 14.4835 0.716344 15.1998 1.6 15.1998H9.2C10.0837 15.1998 10.8 14.4835 10.8 13.5998V10.3998C10.8 9.51615 10.0837 8.7998 9.2 8.7998Z" fill="#AEAEAE"/>
<path d="M9.2 17.6006H1.6C0.716344 17.6006 0 18.3169 0 19.2006V22.4006C0 23.2842 0.716344 24.0006 1.6 24.0006H9.2C10.0837 24.0006 10.8 23.2842 10.8 22.4006V19.2006C10.8 18.3169 10.0837 17.6006 9.2 17.6006Z" fill="#AEAEAE"/>
<path d="M18.3797 21.4285C18.4339 21.4854 18.499 21.5307 18.5712 21.5616C18.6434 21.5926 18.7212 21.6085 18.7997 21.6085C18.8783 21.6085 18.956 21.5926 19.0282 21.5616C19.1004 21.5307 19.1655 21.4854 19.2197 21.4285L23.8197 16.8685C23.8766 16.8144 23.9219 16.7492 23.9528 16.677C23.9838 16.6048 23.9997 16.5271 23.9997 16.4485C23.9997 16.37 23.9838 16.2923 23.9528 16.2201C23.9219 16.1479 23.8766 16.0827 23.8197 16.0285L19.1997 11.4285C19.1455 11.3717 19.0804 11.3264 19.0082 11.2954C18.936 11.2645 18.8583 11.2485 18.7797 11.2485C18.7012 11.2485 18.6234 11.2645 18.5512 11.2954C18.479 11.3264 18.4139 11.3717 18.3597 11.4285L17.5197 12.2685C17.4628 12.3227 17.4175 12.3879 17.3866 12.4601C17.3557 12.5323 17.3397 12.61 17.3397 12.6885C17.3397 12.7671 17.3557 12.8448 17.3866 12.917C17.4175 12.9892 17.4628 13.0544 17.5197 13.1085L18.9597 14.5485C19.0145 14.6044 19.0517 14.6752 19.0667 14.7521C19.0817 14.8289 19.0738 14.9085 19.044 14.9809C19.0141 15.0533 18.9637 15.1153 18.899 15.1594C18.8342 15.2034 18.758 15.2274 18.6797 15.2285H13.8397C13.6775 15.231 13.5221 15.2939 13.4037 15.4048C13.2854 15.5158 13.2126 15.6668 13.1997 15.8285V17.0285C13.2183 17.1884 13.2926 17.3366 13.4097 17.4471C13.5267 17.5576 13.679 17.6233 13.8397 17.6325H18.6997C18.778 17.6336 18.8542 17.6577 18.919 17.7017C18.9837 17.7457 19.0341 17.8078 19.064 17.8802C19.0938 17.9526 19.1017 18.0322 19.0867 18.109C19.0717 18.1859 19.0345 18.2566 18.9797 18.3125L17.5397 19.7525C17.4828 19.8067 17.4375 19.8719 17.4066 19.9441C17.3757 20.0163 17.3597 20.094 17.3597 20.1725C17.3597 20.2511 17.3757 20.3288 17.4066 20.401C17.4375 20.4732 17.4828 20.5384 17.5397 20.5925L18.3797 21.4285Z" fill="#AEAEAE"/>
</svg>
