<svg width="37" height="37" viewBox="0 0 37 37" fill="none" xmlns="http://www.w3.org/2000/svg">
<g clip-path="url(#clip0_169_681)">
<path d="M27.6161 0.0146484H9.68743C4.71994 0.0146484 0.666016 4.09439 0.666016 9.09352V27.1651C0.666016 32.1355 4.71994 36.2152 9.68743 36.2152H27.6446C32.6121 36.2152 36.666 32.1355 36.666 27.1363V9.09352C36.6375 4.09439 32.5835 0.0146484 27.6161 0.0146484ZM27.5875 13.5755C27.5875 13.7766 27.5875 13.9777 27.5875 14.1788C27.5875 20.2123 22.9626 27.1651 14.4836 27.1651C11.8857 27.1651 9.45904 26.4181 7.43207 25.1252C7.80321 25.1539 8.14579 25.1827 8.51693 25.1827C10.6866 25.1827 12.6565 24.4644 14.2267 23.229C12.1997 23.2002 10.5153 21.8786 9.91582 20.0686C10.2013 20.1261 10.4868 20.1548 10.7723 20.1548C11.2005 20.1548 11.6287 20.0973 11.9999 19.9824C9.94437 19.5515 8.37418 17.7127 8.37418 15.5004V15.443C8.94516 15.7878 9.68743 15.9889 10.4297 16.0176C9.2021 15.2131 8.37418 13.8053 8.37418 12.2252C8.37418 11.392 8.60257 10.6162 9.00226 9.92671C11.2862 12.6848 14.6549 14.4949 18.4804 14.696C18.3948 14.3512 18.3663 14.0065 18.3663 13.6617C18.3663 11.1334 20.4218 9.09352 22.9626 9.09352C24.2758 9.09352 25.4749 9.6394 26.3314 10.5301C27.3877 10.3289 28.3583 9.95544 29.2433 9.40956C28.9007 10.4726 28.1585 11.3632 27.2164 11.9378C28.1585 11.8229 29.0435 11.5931 29.8714 11.2196C29.2433 12.139 28.4725 12.9434 27.5875 13.5755Z" fill="#005F6C"/>
</g>
<defs>
<clipPath id="clip0_169_681">
<rect width="36" height="36.2293" fill="white" transform="translate(0.666016)"/>
</clipPath>
</defs>
</svg>
