<svg width="24" height="24" viewBox="0 0 24 24" fill="none" xmlns="http://www.w3.org/2000/svg">
<path d="M23.7641 14.5064L20.3489 9.22876C20.0835 8.8209 19.6364 8.5752 19.1499 8.5752H17.6413C17.4201 8.5752 17.2875 8.8209 17.4103 9.00271L21.0958 14.703C21.145 14.7767 21.0909 14.8749 21.0025 14.8749H19.3857H18.0688H16.8059C16.6536 14.8749 16.5356 14.9978 16.5258 15.1452C16.3833 17.5236 14.4128 19.4106 11.9951 19.4106C9.5774 19.4106 7.60688 17.5236 7.46437 15.1452C7.45455 14.9929 7.33661 14.8749 7.18428 14.8749H5.92138H4.79115H2.99263C2.90418 14.8749 2.85504 14.7767 2.89926 14.703L6.58477 9.00271C6.7027 8.81598 6.57002 8.5752 6.35381 8.5752H4.84521C4.35872 8.5752 3.91155 8.8209 3.64619 9.22876L0.235872 14.5064C0.0835381 14.7423 0 15.0224 0 15.3074V22.6587C0 23.3762 0.584767 23.9609 1.30221 23.9609H12H22.6978C23.4152 23.9609 24 23.3762 24 22.6587V15.3074C24 15.0224 23.9214 14.7472 23.7641 14.5064Z" fill="#7E7E7E"/>
<path d="M12.3929 0.231197C12.1914 -0.0243313 11.8032 -0.0243313 11.6018 0.231197L8.36343 4.34914C8.10299 4.67837 8.33886 5.16486 8.75655 5.16486H10.0342V12.9437C10.0342 14.0297 10.9138 14.9093 11.9998 14.9093C13.0858 14.9093 13.9654 14.0297 13.9654 12.9437V5.15995H15.243C15.6607 5.15995 15.8966 4.67346 15.6361 4.34422L12.3929 0.231197Z" fill="#7E7E7E"/>
</svg>
