<svg width="36" height="37" viewBox="0 0 36 37" fill="none" xmlns="http://www.w3.org/2000/svg">
<g clip-path="url(#clip0_169_657)">
<path d="M18.1853 8.57617C13.0751 8.57617 8.93555 12.7134 8.93555 17.8274C8.93555 19.8386 9.59217 21.7348 10.7056 23.2575L9.53507 26.7052L13.1037 25.556C14.5597 26.5328 16.3297 27.0787 18.2139 27.0787C23.3241 27.0787 27.4922 22.9415 27.4922 17.8274C27.4637 12.7134 23.2956 8.57617 18.1853 8.57617ZM23.6096 21.6486C23.3812 22.2807 22.2678 22.884 21.7825 22.9415C21.2972 22.9989 21.2972 23.3437 18.5279 22.2807C15.7873 21.1889 14.0458 18.402 13.903 18.2009C13.7603 18.0285 12.7896 16.7357 12.7896 15.4141C12.7896 14.0924 13.4748 13.4316 13.7317 13.1731C13.9887 12.9145 14.2742 12.8283 14.4455 12.8283C14.6168 12.8283 14.8166 12.857 14.9593 12.857C15.1306 12.857 15.3305 12.7708 15.5589 13.3167C15.7873 13.8626 16.3297 15.1842 16.3868 15.3279C16.4439 15.4715 16.501 15.6152 16.4153 15.7876C16.3297 15.9599 16.2726 16.0749 16.1584 16.2472C16.0156 16.3909 15.8729 16.592 15.7587 16.7069C15.616 16.8506 15.4732 16.9942 15.6445 17.2528C15.8158 17.5114 16.3582 18.402 17.1576 19.1203C18.1853 20.0397 19.0704 20.327 19.3273 20.4706C19.5842 20.6143 19.7555 20.5856 19.8983 20.4132C20.0696 20.2408 20.5834 19.6375 20.7547 19.3502C20.926 19.0916 21.1259 19.1203 21.3543 19.2065C21.6112 19.2927 22.9244 19.9535 23.2099 20.0971C23.4669 20.2408 23.6667 20.2983 23.7238 20.4132C23.8095 20.4706 23.8095 21.0165 23.6096 21.6486Z" fill="#005F6C"/>
<path d="M26.95 0.0141602H9.02141C4.05393 0.0141602 0 4.09391 0 9.09303V27.1646C0 32.135 4.05393 36.2147 9.02141 36.2147H26.9786C31.9461 36.2147 36 32.135 36 27.1359V9.09303C35.9715 4.09391 31.9175 0.0141602 26.95 0.0141602ZM18.1856 28.831C16.2443 28.831 14.4457 28.3425 12.8469 27.4519L6.73751 29.4056L8.73592 23.5158C7.73672 21.8494 7.16574 19.8957 7.16574 17.8271C7.16574 11.7362 12.1047 6.82332 18.1856 6.82332C24.2665 6.82332 29.2054 11.7362 29.2054 17.8271C29.2054 23.918 24.2665 28.831 18.1856 28.831Z" fill="#005F6C"/>
</g>
<defs>
<clipPath id="clip0_169_657">
<rect width="36" height="36.2293" fill="white"/>
</clipPath>
</defs>
</svg>
